<?xml version="1.0" encoding="utf-8"?>
<!-- Generator: Adobe Illustrator 19.0.0, SVG Export Plug-In . SVG Version: 6.00 Build 0)  -->
<svg version="1.1" id="Layer_1" xmlns="http://www.w3.org/2000/svg" xmlns:xlink="http://www.w3.org/1999/xlink" x="0px" y="0px"
	 viewBox="0 0 330 330" style="enable-background:new 0 0 330 330;" xml:space="preserve"> 
<style type="text/css">
	.st0{fill:#F3F5F7;}
	.st1{fill:none;stroke:#A1F2FF;stroke-width:2;stroke-linecap:round;stroke-linejoin:round;stroke-miterlimit:10;}
	.st2{fill:#FFFFFF;stroke:#00A1C6;stroke-width:2;stroke-linecap:round;stroke-linejoin:round;stroke-miterlimit:10;}
	.st3{fill:url(#border-0_1_);stroke:#00A1C6;stroke-width:2;stroke-linecap:round;stroke-linejoin:round;stroke-miterlimit:10;}
	.st4{fill:url(#SVGID_1_);stroke:#00A1C6;stroke-width:2;stroke-linecap:round;stroke-linejoin:round;stroke-miterlimit:10;}
	.st5{fill:url(#SVGID_2_);stroke:#00A1C6;stroke-width:2;stroke-linecap:round;stroke-linejoin:round;stroke-miterlimit:10;}
	.st6{fill:url(#SVGID_3_);stroke:#00A1C6;stroke-width:2;stroke-linecap:round;stroke-linejoin:round;stroke-miterlimit:10;}
	.st7{fill:url(#SVGID_4_);stroke:#00A1C6;stroke-width:2;stroke-linecap:round;stroke-linejoin:round;stroke-miterlimit:10;}
	.st8{fill:url(#SVGID_5_);stroke:#00A1C6;stroke-width:2;stroke-linecap:round;stroke-linejoin:round;stroke-miterlimit:10;}
</style>
<circle id="Background" class="st0" cx="165" cy="160.5" r="124.5"/>
<g id="Sparks">
	<line class="st1" x2="33.5" y2="154" x1="59.9" y1="154"/>
	<line class="st1" x2="72.1" y2="60.9" x1="90.7" y1="79.5"/>
	<line class="st1" x2="165.2" y2="22.3" x1="165.2" y1="48.7"/>
	<line class="st1" x2="258.3" y2="60.9" x1="239.7" y1="79.5"/>
	<line class="st1" x2="296.9" y2="154" x1="270.5" y1="154"/>
</g>
<g id="Lines">
	<line class="st1" x1="165.4" y1="100.2" x2="165.4" y2="160.4"/>
	<line class="st1" x1="165.4" y1="220.6" x2="165.4" y2="160.4" />
	<line class="st1" x1="217.8" y1="190.1" x2="165.4" y2="160.4"/>
	<line class="st1" x1="113" y1="129.9" x2="165.4" y2="160.4" />
	<line class="st1" x1="113" y1="190.1" x2="165.4" y2="160.4"/>
	<line class="st1" x1="217.8" y1="129.9" x2="165.4" y2="160.4" />
</g>
<g id="Parts" style='transform-origin: 50% 50%;'>
	<polygon class="st2" points="133.4,81.3 112.6,93.3 81,111.5 81,148 112.6,129.7 165,99.5 	"/>
	<linearGradient id="border-0_1_" gradientUnits="userSpaceOnUse" x1="175.3996" y1="185.0725" x2="175.3996" y2="7.687">
		<stop  offset="0.2118" style="stop-color:#A1F2FF"/>
		<stop  offset="0.6546" style="stop-color:#6BD7FF"/>
	</linearGradient>
	<polygon id="border-0" class="st3" points="196.6,81.3 165,63 133.4,81.3 165,99.5 217.4,129.7 217.4,93.3 	"/>
	<polygon id="border-1" class="st2" points="217.4,93.3 217.4,129.7 217.4,190.2 249,171.9 249,148 249,111.5 	"/>
	<linearGradient id="SVGID_1_" gradientUnits="userSpaceOnUse" x1="206.985" y1="526.6262" x2="206.985" y2="171.9366">
		<stop  offset="0.2118" style="stop-color:#A1F2FF"/>
		<stop  offset="0.6546" style="stop-color:#6BD7FF"/>
	</linearGradient>
	<polygon class="st4" points="217.4,190.2 165,220.4 196.6,238.7 217.4,226.7 249,208.5 249,171.9 	"/>
	<polygon class="st2" points="165,220.4 112.6,190.2 112.6,226.7 133.4,238.7 165,257 196.6,238.7 	"/>
	<linearGradient id="SVGID_2_" gradientUnits="userSpaceOnUse" x1="96.833" y1="226.7279" x2="96.833" y2="-288.7307">
		<stop  offset="0.2118" style="stop-color:#A1F2FF"/>
		<stop  offset="0.6546" style="stop-color:#6BD7FF"/>
	</linearGradient>
	<polygon class="st5" points="81,148 81,171.9 81,208.5 112.6,226.7 112.6,190.2 112.6,129.7 	"/>
</g>
<g id="Laptop">
	<linearGradient id="SVGID_3_" gradientUnits="userSpaceOnUse" x1="136.621" y1="156.4044" x2="193.379" y2="156.4044">
		<stop  offset="0.2118" style="stop-color:#A1F2FF"/>
		<stop  offset="0.6546" style="stop-color:#6BD7FF"/>
	</linearGradient>
	<path class="st6" d="M193.4,175.7h-56.8v-33.6c0-2.8,2.2-5,5-5h46.8c2.8,0,5,2.2,5,5V175.7z"/>
	<path class="st2" d="M192.3,180.9h-54.7c-2.8,0-5.1-2.3-5.1-5.1v0h64.8v0C197.4,178.6,195.1,180.9,192.3,180.9z"/>
	<rect x="141.6" y="142.1" class="st2" width="46.8" height="28.6"/>
</g>
<g id="Checkmark" style="opacity: 0">
	<linearGradient id="SVGID_4_" gradientUnits="userSpaceOnUse" x1="155" y1="156.125" x2="175" y2="156.125">
		<stop  offset="0.2118" style="stop-color:#A1F2FF"/>
		<stop  offset="0.6546" style="stop-color:#6BD7FF"/>
	</linearGradient>
	<circle class="st7" cx="165" cy="156.1" r="10"/>
	<linearGradient id="SVGID_5_" gradientUnits="userSpaceOnUse" x1="160.3333" y1="156.125" x2="169.6667" y2="156.125">
		<stop  offset="0.2118" style="stop-color:#A1F2FF"/>
		<stop  offset="0.6546" style="stop-color:#6BD7FF"/>
	</linearGradient>
	<polyline class="st8" points="160.3,156.8 163,159.5 169.7,152.8 	"/>
</g>
<script xlink:href="./anime.js"></script>	
<script xlink:href="./animation-8.js"></script>	 
</svg>
