<?xml version="1.0" encoding="utf-8"?>
<!-- Generator: Adobe Illustrator 19.0.0, SVG Export Plug-In . SVG Version: 6.00 Build 0)  -->
<svg version="1.1" id="Layer_1" xmlns="http://www.w3.org/2000/svg" xmlns:xlink="http://www.w3.org/1999/xlink" x="0px" y="0px"
	 viewBox="65 -65 330 330" style="enable-background:new 65 -65 330 330;" xml:space="preserve">
<style type="text/css">
	.st0{fill:#F3F5F7;}
	.st1{fill:url(#SVGID_1_);stroke:#00A1C6;stroke-width:2;stroke-linecap:round;stroke-linejoin:round;stroke-miterlimit:10;}
	.st2{fill:url(#SVGID_2_);stroke:#00A1C6;stroke-width:2;stroke-linecap:round;stroke-linejoin:round;stroke-miterlimit:10;}
	.st3{fill:#FFFFFF;stroke:#00A1C6;stroke-width:2;stroke-linecap:round;stroke-linejoin:round;stroke-miterlimit:10;}
	.st4{fill:none;stroke:#00A1C6;stroke-width:2;stroke-linecap:round;stroke-linejoin:round;stroke-miterlimit:10;}
	.st5{fill:#F3F5F7;stroke:#00A1C6;stroke-width:2;stroke-linecap:round;stroke-linejoin:round;stroke-miterlimit:10;}
	.st6{fill:#FFFFFF;stroke:#00A1C6;stroke-width:1.9339;stroke-linecap:round;stroke-linejoin:round;stroke-miterlimit:10;}
	.st7{fill:#00A1C6;}
	.st8{fill:none;stroke:#A1F2FF;stroke-width:2;stroke-linejoin:round;stroke-miterlimit:10;}
	.st9{fill:none;stroke:#A1F2FF;stroke-width:2;stroke-linecap:round;stroke-linejoin:round;stroke-miterlimit:10;}
</style>
<circle class="st0" cx="223.8" cy="97.9" r="124.5"/>
<linearGradient id="SVGID_1_" gradientUnits="userSpaceOnUse" x1="140.25" y1="130.95" x2="307.25" y2="130.95">
	<stop  offset="0.2118" style="stop-color:#A1F2FF"/>
	<stop  offset="0.6546" style="stop-color:#6BD7FF"/>
</linearGradient>
<path class="st1" d="M297.2,39.5h-147c-5.5,0-10,4.5-10,10v163c0,5.5,4.5,10,10,10h147c5.5,0,10-4.5,10-10v-163
	C307.2,44,302.8,39.5,297.2,39.5z"/>
<g id="Hand">
	<g>
		<linearGradient id="SVGID_2_" gradientUnits="userSpaceOnUse" x1="290.75" y1="147.35" x2="366.75" y2="147.35">
			<stop  offset="0.2118" style="stop-color:#A1F2FF"/>
			<stop  offset="0.6546" style="stop-color:#6BD7FF"/>
		</linearGradient>
		<path class="st2" d="M341.5,141.4v-11.6c0-6.7-5.4-12.1-12.1-12.1v13.5l-7.2,11.9h-31.4v29h27.7v4.8h36.2l2.3-11.6h2.5l2.3-11.6
			h2.5l2.5-12.3H341.5z"/>
		<rect x="290.8" y="138.3" class="st3" width="22.9" height="38.6"/>
		<line class="st4" x1="362.1" y1="153.6" x2="355.4" y2="153.6"/>
		<line class="st4" x1="358.4" y1="165.3" x2="351.5" y2="165.3"/>
	</g>
	<circle class="st3" cx="302.1" cy="166.1" r="3.8"/>
</g>
<circle class="st5" cx="186.8" cy="55" r="8"/>
<circle class="st5" cx="260.8" cy="55" r="8"/>
<path class="st5" d="M286.8,70.9h-126c-2.2,0-4,1.8-4,4v63.5h134V74.9C290.8,72.8,289,70.9,286.8,70.9z"/>
<path class="st3" d="M286.8,70.9h-126c-2.2,0-4,1.8-4,4v126c0,2.2,1.8,4,4,4h126c2.2,0,4-1.8,4-4v-126
	C290.8,72.8,289,70.9,286.8,70.9z"/>
<g id="_x30_1">
	<g id="TopPart01">
		<path class="st6" d="M290.8,86.4c0-2.2-1.8-4-4-4h-126c-2.2,0-4,1.8-4,4v51.6l134,0.8V86.4z"/>
		<path class="st7" d="M262.9,111.8c0-2.9-2.2-5.1-5.1-5.1h-0.2c-1.5,0-3,0.3-5,0.9l-8.9,2.9c-2.1,0.6-3.4,2.3-3.4,4.5
			c0,2.4,2.1,4.4,4.5,4.4c0.5,0,1.3-0.1,1.8-0.3l6-1.8v20.2l10.2,0.1v-25.8H262.9z"/>
		<path class="st7" d="M178.4,136.6c0-11.7,5.8-20.9,14.9-20.9s15,9.5,15,21.1v0.1l10.7,0.1c0-0.1,0-0.1,0-0.2v-0.2
			c0-16.8-10.2-30.2-25.5-30.2c-15.4,0-25.6,13.5-25.7,30.2L178.4,136.6L178.4,136.6z"/>
	</g>
</g>
<g id="_x33_0">
	<g id="BottomPart30">
		<path class="st6" d="M156.8,138.1v55.4c0,2.2,1.8,4,4,4h126c2.2,0,4-1.8,4-4v-54.6L156.8,138.1z"/>
		<path class="st7" d="M269.2,138.8L269.2,138.8v0.2c0,11.5-5.7,20.9-14.9,20.9c-9.2,0-15-9.5-15-21.1v-0.2c0,0,0,0,0-0.1l-10.7-0.1
			c0,0.1,0,0.2,0,0.3v0.2c0,16.8,10.1,30.2,25.5,30.2c15.5,0,25.7-13.6,25.7-30.4L269.2,138.8z"/>
		<path class="st7" d="M208.6,138.3l-24.7-0.1c0.4,2,2.2,3.5,4.3,3.5h2.1c8.2,0,13.5,3.3,13.5,9.1v0.2c0,5.4-4.4,8.9-10.2,8.9
			c-5.5,0-9.7-1.9-13.4-5.6c-0.8-0.8-1.9-1.3-3.4-1.3c-2.7,0-5,2.3-5,5c0,1.5,0.8,2.9,1.7,3.7c4.8,4.6,11.3,7.6,19.9,7.6
			c12.3,0,20.6-7.8,20.6-18.6v-0.2C213.9,144.8,211.9,140.9,208.6,138.3z"/>
	</g>
	<g id="TopPart30">
		<path class="st6" d="M290.8,86.4c0-2.2-1.8-4-4-4h-126c-2.2,0-4,1.8-4,4v51.6l134,0.8V86.4z"/>
		<path class="st7" d="M196.6,133.9l13.9-14.4c1.8-1.8,2.9-3.2,2.9-5.6c0-2.8-2.2-4.5-5.1-4.5h-30.1c-2.5,0-4.5,2-4.5,4.5
			c0,2.4,2,4.5,4.5,4.5h21.3l-13.8,14.7c-1.6,1.6-2.2,2.9-2.2,4.2c0,0.3,0,0.6,0.1,0.9l24.7,0.1
			C205.4,135.8,201.1,134.4,196.6,133.9z"/>
		<path class="st7" d="M254.1,117.8c9.1,0,15,9.5,15,21l10.7,0.1l0,0v-0.2c0-16.8-10.2-30.2-25.5-30.2c-15.4,0-25.6,13.4-25.7,30.1
			l10.7,0.1C239.4,126.9,245.1,117.8,254.1,117.8z"/>
	</g>
</g>
	<g id="BottomPart01">
		<path class="st6" d="M156.8,138.1v55.4c0,2.2,1.8,4,4,4h126c2.2,0,4-1.8,4-4v-54.6L156.8,138.1z"/>
		<path class="st7" d="M208.2,136.9L208.2,136.9c0,11.6-5.7,21-14.9,21s-15-9.5-15-21.1v-0.2l-10.7-0.1c0,0.1,0,0.2,0,0.3v0.2
			c0,16.8,10.1,30.2,25.5,30.2s25.6-13.5,25.7-30.2L208.2,136.9z"/>
		<path class="st7" d="M252.5,137.3v24.1c0,2.9,2.4,5.1,5.1,5.1c2.9,0,5.1-2.3,5.1-5.1v-24L252.5,137.3z"/>
	</g>
<line class="st8" x1="157.8" y1="138.4" x2="289.8" y2="138.4"/>
<path class="st3" d="M186.8,20.5L186.8,20.5c-2.2,0-4,1.8-4,4v30c0,2.2,1.8,4,4,4l0,0c2.2,0,4-1.8,4-4v-30
	C190.8,22.2,188.9,20.5,186.8,20.5z"/>
<path class="st3" d="M260.8,20.5L260.8,20.5c-2.2,0-4,1.8-4,4v30c0,2.2,1.8,4,4,4l0,0c2.2,0,4-1.8,4-4v-30
	C264.8,22.2,263,20.5,260.8,20.5z"/>
<g id="Sparks">
	<line class="st9" x1="119.7" y1="98.4" x2="93.2" y2="98.4"/>
	<line class="st9" x1="150.4" y1="24" x2="131.9" y2="5.4"/>
	<line class="st9" x1="224.9" y1="-6.8" x2="224.9" y2="-33.2"/>
	<line class="st9" x1="299.5" y1="24" x2="318" y2="5.4"/>
	<line class="st9" x1="330.2" y1="98.4" x2="356.6" y2="98.4"/>
</g>
<script  xlink:href="./anime.js"></script>
<script  xlink:href="./animation-5.js"></script>
</svg>
