<?xml version="1.0" encoding="utf-8"?>
<!-- Generator: Adobe Illustrator 19.0.0, SVG Export Plug-In . SVG Version: 6.00 Build 0)  -->
<svg version="1.1" id="Layer_1" xmlns="http://www.w3.org/2000/svg" xmlns:xlink="http://www.w3.org/1999/xlink" x="0px" y="0px"
	 viewBox="0 0 330 330" style="enable-background:new 0 0 330 330;" xml:space="preserve">
<style type="text/css">
	.st0{fill:#F3F5F7;}
	.st1{fill:none;stroke:#A1F2FF;stroke-width:2;stroke-linecap:round;stroke-linejoin:round;stroke-miterlimit:10;}
	.st2{fill:#FFFFFF;stroke:#00A1C6;stroke-width:2;stroke-linecap:round;stroke-linejoin:round;stroke-miterlimit:10;}
	.st3{fill:url(#SVGID_1_);stroke:#00A1C6;stroke-width:2;stroke-linecap:round;stroke-linejoin:round;stroke-miterlimit:10;}
	.st4{fill:url(#SVGID_2_);stroke:#00A1C6;stroke-width:2;stroke-linecap:round;stroke-linejoin:round;stroke-miterlimit:10;}
	.st5{fill:url(#SVGID_3_);stroke:#00A1C6;stroke-width:2;stroke-linecap:round;stroke-linejoin:round;stroke-miterlimit:10;}
	.st6{fill:url(#SVGID_4_);stroke:#00A1C6;stroke-width:2;stroke-linecap:round;stroke-linejoin:round;stroke-miterlimit:10;}
	.st7{fill:url(#SVGID_5_);stroke:#00A1C6;stroke-width:2;stroke-linecap:round;stroke-linejoin:round;stroke-miterlimit:10;}
	.st8{fill:none;stroke:#00A1C6;stroke-width:2;stroke-linecap:round;stroke-linejoin:round;stroke-miterlimit:10;}
	.st9{fill:url(#SVGID_6_);stroke:#00A1C6;stroke-width:2;stroke-linecap:round;stroke-linejoin:round;stroke-miterlimit:10;}
	.st10{fill:url(#SVGID_7_);stroke:#00A1C6;stroke-width:2;stroke-linecap:round;stroke-linejoin:round;stroke-miterlimit:10;}
	.st11{fill:url(#SVGID_8_);stroke:#00A1C6;stroke-width:2;stroke-linecap:round;stroke-linejoin:round;stroke-miterlimit:10;}
	.st12{fill:url(#SVGID_9_);stroke:#00A1C6;stroke-width:2;stroke-linecap:round;stroke-linejoin:round;stroke-miterlimit:10;}
</style>
<circle id="Background" class="st0" cx="165" cy="160.5" r="124.5"/>
<rect id="FilesPath" x="106" y="74.1" transform="matrix(0.7071 0.7071 -0.7071 0.7071 142.9817 -77.8797)" class="st1" width="119" height="119"/>
<g id="Item-1">
	<path class="st2" d="M182.5,63h-34.4c-1.5,0-2.6-1.2-2.6-2.6V27.3H160l4,5.3h21.2v27.8C185.2,61.9,184,63,182.5,63z"/>
	<linearGradient id="SVGID_1_" gradientUnits="userSpaceOnUse" x1="156.7093" y1="54.4441" x2="173.9139" y2="54.4441">
		<stop  offset="0.15" style="stop-color:#A1F2FF"/>
		<stop  offset="0.85" style="stop-color:#6BD7FF"/>
	</linearGradient>
	<path class="st3" d="M173.9,57.8h-17.2V55c0-0.9,0.5-1.8,1.3-2.3c1.3-0.7,3.5-1.6,7.3-1.6s6,0.9,7.3,1.6c0.8,0.5,1.3,1.3,1.3,2.3
		V57.8z"/>
	<linearGradient id="SVGID_2_" gradientUnits="userSpaceOnUse" x1="160.6796" y1="42.8641" x2="169.9436" y2="42.8641">
		<stop  offset="0.15" style="stop-color:#A1F2FF"/>
		<stop  offset="0.85" style="stop-color:#6BD7FF"/>
	</linearGradient>
	<path class="st4" d="M160.7,42.5c0-2.6,2.1-4.6,4.6-4.6c2.6,0,4.6,2.1,4.6,4.6s-2.1,5.3-4.6,5.3S160.7,45.1,160.7,42.5z"/>
</g>
<g id="Item-4">
	<path class="st2" d="M97.3,150.4H62.8c-1.5,0-2.6-1.2-2.6-2.6v-33.1h14.6l4,5.3h21.2v27.8C99.9,149.2,98.7,150.4,97.3,150.4z"/>
	<linearGradient id="SVGID_3_" gradientUnits="userSpaceOnUse" x1="78.069" y1="135.1582" x2="82.0393" y2="135.1582">
		<stop  offset="0.15" style="stop-color:#A1F2FF"/>
		<stop  offset="0.85" style="stop-color:#6BD7FF"/>
	</linearGradient>
	<rect x="78.1" y="128.5" class="st5" width="4" height="13.2"/>
	<linearGradient id="SVGID_4_" gradientUnits="userSpaceOnUse" x1="69.4667" y1="139.4594" x2="73.437" y2="139.4594">
		<stop  offset="0.15" style="stop-color:#A1F2FF"/>
		<stop  offset="0.85" style="stop-color:#6BD7FF"/>
	</linearGradient>
	<rect x="69.5" y="137.1" class="st6" width="4" height="4.6"/>
	<linearGradient id="SVGID_5_" gradientUnits="userSpaceOnUse" x1="86.6713" y1="137.8051" x2="90.6416" y2="137.8051">
		<stop  offset="0.15" style="stop-color:#A1F2FF"/>
		<stop  offset="0.85" style="stop-color:#6BD7FF"/>
	</linearGradient>
	<rect x="86.7" y="133.8" class="st7" width="4" height="7.9"/>
</g>
<g id="Item-2">
	<rect x="235.1" y="120.5" class="st2" width="24.3" height="28.8"/>
	<polyline class="st8" points="238.1,116 263.9,116 263.9,146.3 	"/>
	<line class="st2" x1="241.2" y1="128.1" x2="253.3" y2="128.1"/>
	<line class="st2" x1="241.2" y1="134.2" x2="253.3" y2="134.2"/>
	<line class="st2" x1="241.2" y1="140.2" x2="247.2" y2="140.2"/>
</g>
<g id="Monitor">
	<linearGradient id="SVGID_6_" gradientUnits="userSpaceOnUse" x1="104" y1="218" x2="227" y2="218">
		<stop  offset="0.2118" style="stop-color:#A1F2FF"/>
		<stop  offset="0.6546" style="stop-color:#6BD7FF"/>
	</linearGradient>
	<rect x="104" y="178" class="st9" width="123" height="80"/>
	<linearGradient id="SVGID_7_" gradientUnits="userSpaceOnUse" x1="153" y1="269" x2="178" y2="269">
		<stop  offset="0.2118" style="stop-color:#A1F2FF"/>
		<stop  offset="0.6546" style="stop-color:#6BD7FF"/>
	</linearGradient>
	<rect x="153" y="258" class="st10" width="25" height="22"/>
	<linearGradient id="SVGID_8_" gradientUnits="userSpaceOnUse" x1="130.5" y1="282.75" x2="200.5" y2="282.75">
		<stop  offset="0.2118" style="stop-color:#A1F2FF"/>
		<stop  offset="0.6546" style="stop-color:#6BD7FF"/>
	</linearGradient>
	<rect x="130.5" y="280" class="st11" width="70" height="5.5"/>
	<rect x="112" y="186" class="st2" width="107" height="57"/>
	<circle class="st2" cx="165" cy="250.4" r="2.5"/>
</g>
<g id="Item-3">
	<linearGradient id="SVGID_9_" gradientUnits="userSpaceOnUse" x1="150.8377" y1="214.5114" x2="179.4238" y2="214.5114">
		<stop  offset="0.15" style="stop-color:#A1F2FF"/>
		<stop  offset="0.85" style="stop-color:#6BD7FF"/>
	</linearGradient>
	<polygon class="st12" points="172.3,196.6 150.8,196.6 150.8,232.4 179.4,232.4 179.4,203.8 	"/>
	<polyline class="st8" points="172.3,196.6 172.3,203.8 179.4,203.8 	"/>
	<circle class="st2" cx="165.1" cy="214.5" r="8.3"/>
	<polyline class="st8" points="165.1,206.2 165.1,214.5 173.5,214.5 	"/>
</g>
<g id="PriceTag">
	<rect x="161" y="146" class="st2" width="8" height="32"/>
	<path class="st2" d="M175,109h-20c-5.5,0-10,4.5-10,10v34h40v-34C185,113.5,180.5,109,175,109z"/>
	<g>
		<line class="st8" x1="164.8" y1="119" x2="164.8" y2="143"/>
		<path class="st8" d="M170.8,123.8c-2.7-1.4-11.5-2.5-11.5,2.4c0,5.8,10.9,3.8,10.9,8.9s-7.1,4.8-12,3.1"/>
	</g>
</g>
<g id="Sparks">
	<line class="st1" x1="129" y1="130" x2="136.2" y2="130"/>
	<line class="st1" x1="139.5" y1="104.5" x2="144.6" y2="109.6"/>
	<line class="st1" x1="165" y1="94" x2="165" y2="101.2"/>
	<line class="st1" x1="190.5" y1="104.5" x2="185.4" y2="109.6"/>
	<line class="st1" x1="201" y1="130" x2="193.8" y2="130"/>
</g>
</svg>
