<?xml version="1.0" encoding="utf-8"?>
<!-- Generator: Adobe Illustrator 19.0.0, SVG Export Plug-In . SVG Version: 6.00 Build 0)  -->
<svg version="1.1" id="Layer_1" xmlns="http://www.w3.org/2000/svg" xmlns:xlink="http://www.w3.org/1999/xlink" x="0px" y="0px"
	 viewBox="0 0 330 330" style="enable-background:new 0 0 330 330;" xml:space="preserve">
<style type="text/css">
	.st0{fill:#F3F5F7;}
	.st1{fill:#FFFFFF;stroke:#00A1C6;stroke-width:2;stroke-linecap:round;stroke-linejoin:round;stroke-miterlimit:10;}
	.st2{fill:url(#SVGID_1_);stroke:#00A1C6;stroke-width:2;stroke-linecap:round;stroke-linejoin:round;stroke-miterlimit:10;}
	.st3{fill:none;stroke:#00A1C6;stroke-width:2;stroke-linecap:round;stroke-linejoin:round;stroke-miterlimit:10;}
	.st4{fill:url(#LineCircle_1_);stroke:#00A1C6;stroke-width:2;stroke-linecap:round;stroke-linejoin:round;stroke-miterlimit:10;}
	.st5{fill:url(#Pie2Piece_1_);stroke:#00A1C6;stroke-width:2;stroke-linecap:round;stroke-linejoin:round;stroke-miterlimit:10;}
	.st6{fill:url(#Bar-2_1_);stroke:#00A1C6;stroke-width:2;stroke-linecap:round;stroke-linejoin:round;stroke-miterlimit:10;}
	.st7{fill:url(#Bar-1_1_);stroke:#00A1C6;stroke-width:2;stroke-linecap:round;stroke-linejoin:round;stroke-miterlimit:10;}
	.st8{fill:url(#Bar-3_1_);stroke:#00A1C6;stroke-width:2;stroke-linecap:round;stroke-linejoin:round;stroke-miterlimit:10;}
	.st9{fill:url(#Highlight-1_1_);}
	.st10{fill:url(#Highlight-2_1_);}
	.st11{fill:url(#Highlight-3_1_);}
	.st12{fill:none;stroke:#00A1C6;stroke-width:2.2424;stroke-linecap:round;stroke-linejoin:round;stroke-miterlimit:10;}
	.st13{fill:none;stroke:#A1F2FF;stroke-width:2;stroke-linecap:round;stroke-linejoin:round;stroke-miterlimit:10;}
	.st14{fill:#00A1C6;}
</style>
<circle id="Background" class="st0" cx="165" cy="160.5" r="124.5"/>
<g id="Bubble">
	<g>
		<polygon class="st1" points="195,44 135,44 135,84 155,84 165,96 175,84 195,84 		"/>
	</g>
	<g>
		<path class="st14" d="M142.1,64.2L142.1,64.2c0-3.2,2-5.8,4.9-5.8c2.9,0,4.9,2.6,4.9,5.8v0c0,3.2-2,5.8-4.9,5.8
			S142.1,67.4,142.1,64.2z M149.8,64.2L149.8,64.2c0-2.2-1.1-4-2.9-4s-2.8,1.8-2.8,4v0c0,2.2,1.1,4,2.9,4
			C148.7,68.2,149.8,66.4,149.8,64.2z"/>
		<path class="st14" d="M154.6,67.5c0.6,0,1.1,0.5,1.1,1.1v0.2c0,0.6-0.5,1.1-1.1,1.1c-0.7,0-1.1-0.5-1.1-1.1v-0.2
			C153.5,68,153.9,67.5,154.6,67.5z"/>
		<path class="st14" d="M157.3,64.2L157.3,64.2c0-3.2,2-5.8,4.9-5.8c2.9,0,4.9,2.6,4.9,5.8v0c0,3.2-2,5.8-4.9,5.8
			S157.3,67.4,157.3,64.2z M165.1,64.2L165.1,64.2c0-2.2-1.1-4-2.9-4s-2.8,1.8-2.8,4v0c0,2.2,1.1,4,2.9,4
			C164,68.2,165.1,66.4,165.1,64.2z"/>
		<path class="st14" d="M170.8,60.4l-1.2,0.4c-0.1,0-0.3,0-0.4,0c-0.5,0-0.9-0.4-0.9-0.8c0-0.4,0.3-0.7,0.7-0.8l1.7-0.5
			c0.4-0.1,0.7-0.2,1-0.2h0c0.6,0,1,0.4,1,1v9.5c0,0.5-0.4,1-1,1c-0.5,0-1-0.4-1-1V60.4z"/>
		<path class="st14" d="M175,61.3L175,61.3c0-1.6,1.1-2.9,2.7-2.9c1.6,0,2.6,1.3,2.6,2.8v0c0,1.6-1.1,2.9-2.7,2.9
			C176.1,64.2,175,62.9,175,61.3z M178.9,61.3L178.9,61.3c0-0.9-0.5-1.7-1.2-1.7c-0.8,0-1.2,0.7-1.2,1.6v0c0,0.9,0.5,1.6,1.2,1.6
			C178.4,62.9,178.9,62.2,178.9,61.3z M176.9,68.8l7.3-10c0.1-0.2,0.3-0.3,0.5-0.3c0.4,0,0.6,0.3,0.6,0.6c0,0.2-0.1,0.3-0.1,0.4
			l-7.3,10c-0.1,0.2-0.3,0.3-0.6,0.3c-0.4,0-0.6-0.3-0.6-0.6C176.7,69.1,176.8,68.9,176.9,68.8z M181.8,67.1L181.8,67.1
			c0-1.6,1.1-2.9,2.7-2.9c1.6,0,2.6,1.3,2.6,2.8v0c0,1.6-1.1,2.9-2.7,2.9C182.8,69.9,181.8,68.6,181.8,67.1z M185.7,67.1L185.7,67.1
			c0-0.9-0.5-1.7-1.2-1.7c-0.8,0-1.2,0.7-1.2,1.6v0c0,0.9,0.5,1.6,1.2,1.6C185.2,68.7,185.7,67.9,185.7,67.1z"/>
	</g>
</g>
<g>
	<path class="st1" d="M266.7,285H63.3V115.6c0-7.5,6.1-13.6,13.6-13.6h176.2c7.5,0,13.6,6.1,13.6,13.6V285z"/>
	<linearGradient id="SVGID_1_" gradientUnits="userSpaceOnUse" x1="63.3333" y1="116.5" x2="266.6667" y2="116.5">
		<stop  offset="0.2118" style="stop-color:#A1F2FF"/>
		<stop  offset="0.6546" style="stop-color:#6BD7FF"/>
	</linearGradient>
	<path class="st2" d="M266.7,131H63.3v-15.4c0-7.5,6.1-13.6,13.6-13.6h176.2c7.5,0,13.6,6.1,13.6,13.6V131z"/>
	<line class="st1" x1="63.3" y1="130.7" x2="266.7" y2="130.7"/>
</g>
<circle class="st1" cx="77.5" cy="116.5" r="2.5"/>
<circle class="st1" cx="88.5" cy="116.5" r="2.5"/>
<circle class="st1" cx="99.5" cy="116.5" r="2.5"/>
<g id="LineChart">
	<rect x="130.5" y="151.1" class="st1" width="42" height="36.4"/>
	<polyline class="st1" points="130.9,173.6 135.8,168.6 139.3,172.1 144.9,164.4 151.2,171.4 159.2,162.4 167.4,167.7 172.1,157 	
		"/>
	<line id="Line" class="st1" x1="137.3" y1="152" x2="137.3" y2="187.6"/>
	<path id="CircleTrack" class="st3" d="M137.3,170.2 139.3,172.1 144.9,164.4 151.2,171.4 159.2,162.4 165,166.2" />
	<linearGradient id="LineCircle_1_" gradientUnits="userSpaceOnUse" x1="133.1333" y1="169.7667" x2="141.5333" y2="169.7667">
		<stop  offset="0.2118" style="stop-color:#A1F2FF"/>
		<stop  offset="0.6546" style="stop-color:#6BD7FF"/>
	</linearGradient>
	<circle id="LineCircle" class="st4" cx="137.3" cy="169.8" r="4.2"/>
</g>
<g id="PieChart2">
	<path class="st1" d="M225.7,153.2c-10.1,0-18.2,8.1-18.2,18.2s8.1,18.2,18.2,18.2s18.2-8.1,18.2-18.2h-18.2V153.2z"/>
	<linearGradient id="Pie2Piece_1_" gradientUnits="userSpaceOnUse" x1="225.7" y1="162.35" x2="243.9" y2="162.35">
		<stop  offset="0.2118" style="stop-color:#A1F2FF"/>
		<stop  offset="0.6546" style="stop-color:#6BD7FF"/>
	</linearGradient>
	<path id="PiePiece" class="st5" d="M225.7,153.2v18.2h18.2C243.9,161.4,235.8,153.2,225.7,153.2z"/>
</g>
<g id="BarChart">
	<linearGradient id="Bar-2_1_" gradientUnits="userSpaceOnUse" x1="223.6" y1="257.55" x2="233.4" y2="257.55">
		<stop  offset="0.2118" style="stop-color:#A1F2FF"/>
		<stop  offset="0.6546" style="stop-color:#6BD7FF"/>
	</linearGradient>
	<linearGradient id="Bar-1_1_" gradientUnits="userSpaceOnUse" x1="207.5" y1="261.75" x2="217.3" y2="261.75">
		<stop  offset="0.2118" style="stop-color:#A1F2FF"/>
		<stop  offset="0.6546" style="stop-color:#6BD7FF"/>
	</linearGradient>
	<linearGradient id="Bar-3_1_" gradientUnits="userSpaceOnUse" x1="239.7" y1="253.35" x2="249.5" y2="253.35">
		<stop  offset="0.2118" style="stop-color:#A1F2FF"/>
		<stop  offset="0.6546" style="stop-color:#6BD7FF"/>
	</linearGradient>
	<rect id="Bar-1" x="207.5" y="257.5" class="st7" width="9.8" height="8.4"/>
	<rect id="Bar-2" x="223.6" y="249.1" class="st6" width="9.8" height="16.8"/>
	<rect id="Bar-3" x="239.7" y="240.8" class="st8" width="9.8" height="25.2"/>
	<polyline class="st1" points="213.1,242.1 221.5,233.8 228.5,240.8 243.9,225.4 	"/>
	<polyline class="st1" points="234.1,225.4 243.9,225.4 243.9,235.1 	"/>
</g>
<g id="PieChart3">
	<linearGradient id="Highlight-1_1_" gradientUnits="userSpaceOnUse" x1="152.5" y1="235.85" x2="173.5" y2="235.85">
		<stop  offset="0.2118" style="stop-color:#A1F2FF"/>
		<stop  offset="0.6546" style="stop-color:#6BD7FF"/>
	</linearGradient>
	<path id="Highlight-1" class="st9" d="M173.5,246.4h-11.9c0-5-4.1-9.1-9.1-9.1v-11.9C164.1,225.4,173.5,234.8,173.5,246.4z"/>
	<linearGradient id="Highlight-2_1_" gradientUnits="userSpaceOnUse" x1="137.11" y1="256.85" x2="173.5" y2="256.85">
		<stop  offset="0.2118" style="stop-color:#A1F2FF"/>
		<stop  offset="0.6546" style="stop-color:#6BD7FF"/>
	</linearGradient>
	<path id="Highlight-2" class="st10" d="M161.6,246.4h11.9c0,11.6-9.4,21-21,21c-6.1,0-11.6-2.6-15.4-6.7l8.7-8.1
		c1.7,1.8,4,2.9,6.7,2.9C157.5,255.4,161.6,251.4,161.6,246.4z"/>
	<linearGradient id="Highlight-3_1_" gradientUnits="userSpaceOnUse" x1="131.5" y1="242.995" x2="152.5" y2="242.995">
		<stop  offset="0.2118" style="stop-color:#A1F2FF"/>
		<stop  offset="0.6546" style="stop-color:#6BD7FF"/>
	</linearGradient>
	<path id="Highlight-3" class="st11" d="M152.5,225.4v11.9c-5,0-9.1,4.1-9.1,9.1c0,2.4,0.9,4.6,2.4,6.2l-8.7,8.1
		c-3.5-3.7-5.6-8.8-5.6-14.3C131.5,234.8,140.9,225.4,152.5,225.4z"/>
	<path class="st3" d="M152.5,225.4c11.6,0,21,9.4,21,21s-9.4,21-21,21c-6.1,0-11.6-2.6-15.4-6.7c-3.5-3.7-5.6-8.8-5.6-14.3
		C131.5,234.8,140.9,225.4,152.5,225.4z"/>
	<line class="st3" x1="152.5" y1="225.4" x2="152.5" y2="237.2"/>
	<path class="st3" d="M152.5,237.2c5,0,9.1,4.1,9.1,9.1s-4.1,9.1-9.1,9.1c-2.6,0-5-1.1-6.7-2.9c-1.5-1.6-2.4-3.8-2.4-6.2
		C143.4,241.3,147.5,237.2,152.5,237.2z"/>
	<line class="st3" x1="145.8" y1="252.6" x2="137.1" y2="260.6"/>
	<line class="st3" x1="161.6" y1="246.4" x2="173.5" y2="246.4"/>
</g>
<rect x="114" y="131" class="st12" width="76.5" height="77"/>
<rect x="190.5" y="131" class="st12" width="76.5" height="77"/>
<rect x="114" y="208" class="st12" width="76.5" height="77"/>
<rect x="190.5" y="208" class="st12" width="76.5" height="77"/>
<g id="Sliders">
	<line class="st3" x1="73.5" y1="153.5" x2="103.5" y2="153.5"/>
	<rect id="Slider-1" x="74.5" y="149.5" class="st1" width="5" height="8"/>
	<line class="st3" x1="73.5" y1="164.5" x2="103.5" y2="164.5"/>
	<rect id="Slider-2" x="97.5" y="160.5" class="st1" width="5" height="8"/>
	<line class="st3" x1="73.5" y1="175.5" x2="103.5" y2="175.5"/>
	<rect id="Slider-3" x="74.5" y="171.5" class="st1" width="5" height="8"/>
</g>
<g id="Sparks">
	<line class="st13" x1="120.3" y1="74" x2="129.3" y2="74"/>
	<line class="st13" x1="133.4" y1="42.4" x2="139.7" y2="48.7"/>
	<line class="st13" x1="165" y1="29.3" x2="165" y2="38.3"/>
	<line class="st13" x1="196.6" y1="42.4" x2="190.3" y2="48.7"/>
	<line class="st13" x1="209.7" y1="74" x2="200.7" y2="74"/>
</g>
<script xlink:href="./anime.js"></script>	
<script xlink:href="./animation-6.js"></script>	 
</svg>
