<?xml version="1.0" encoding="utf-8"?>
<!-- Generator: Adobe Illustrator 19.0.0, SVG Export Plug-In . SVG Version: 6.00 Build 0)  -->
<svg version="1.1" id="Layer_1" xmlns="http://www.w3.org/2000/svg" xmlns:xlink="http://www.w3.org/1999/xlink" x="0px" y="0px"
	 viewBox="0 0 330 330" style="enable-background:new 0 0 330 330;" xml:space="preserve">
<style type="text/css">
	.st0{fill:#F3F5F7;}
	.st1{fill:url(#SVGID_1_);stroke:#00A1C6;stroke-width:2;stroke-linecap:round;stroke-linejoin:round;stroke-miterlimit:10;}
	.st2{fill:url(#SVGID_2_);stroke:#00A1C6;stroke-width:2;stroke-linecap:round;stroke-linejoin:round;stroke-miterlimit:10;}
	.st3{fill:url(#SVGID_3_);stroke:#00A1C6;stroke-width:2;stroke-linecap:round;stroke-linejoin:round;stroke-miterlimit:10;}
	.st4{fill:url(#SVGID_4_);stroke:#00A1C6;stroke-width:2;stroke-linecap:round;stroke-linejoin:round;stroke-miterlimit:10;}
	.st5{fill:url(#SVGID_5_);stroke:#00A1C6;stroke-width:2;stroke-linecap:round;stroke-linejoin:round;stroke-miterlimit:10;}
	.st6{fill:#FFFFFF;stroke:#00A1C6;stroke-width:2;stroke-linecap:round;stroke-linejoin:round;stroke-miterlimit:10;}
	.st7{fill:none;stroke:#00A1C6;stroke-width:2;stroke-linecap:round;stroke-linejoin:round;stroke-miterlimit:10;}
	.st8{fill:#F3F5F7;stroke:#00A1C6;stroke-width:2;stroke-linecap:round;stroke-linejoin:round;stroke-miterlimit:10;}
	.st9{}
	.st10{display:inline;fill:none;stroke:#A1F2FF;stroke-width:2;stroke-linecap:round;stroke-linejoin:round;stroke-miterlimit:10;}
	.st11{fill:url(#SVGID_6_);stroke:#00A1C6;stroke-width:2;stroke-linecap:round;stroke-linejoin:round;stroke-miterlimit:10;}
	.st12{fill:none;stroke:#A1F2FF;stroke-width:2;stroke-linecap:round;stroke-linejoin:round;stroke-miterlimit:10;}
	.st13{fill:url(#SVGID_7_);stroke:#00A1C6;stroke-width:2;stroke-linecap:round;stroke-linejoin:round;stroke-miterlimit:10;}
	.st14{fill:#000000;stroke:#A1F2FF;stroke-width:2;stroke-linecap:round;stroke-linejoin:round;stroke-miterlimit:10;}

	#Document {transform-origin: 166px 69.2px;z-index:100;}
	#Coin {transform-origin: 166px 69.2px;z-index:100;}

</style>
<defs>
    <clipPath id="ClipPath">
		<rect x="27.4" y="35" width="267.6" height="160.3"/>		
    </clipPath>
</defs>
<circle id="Background" class="st0" cx="165" cy="160.5" r="124.5"/>
<g id="Piggy">
	<linearGradient id="SVGID_1_" gradientUnits="userSpaceOnUse" x1="183.7261" y1="270.474" x2="212.9915" y2="270.474">
		<stop  offset="0.2118" style="stop-color:#A1F2FF"/>
		<stop  offset="0.6546" style="stop-color:#6BD7FF"/>
	</linearGradient>
	<rect x="183.7" y="255.8" class="st1" width="29.3" height="29.3"/>
	<g>
		<linearGradient id="SVGID_2_" gradientUnits="userSpaceOnUse" x1="219.3278" y1="212.5286" x2="260.2993" y2="212.5286">
			<stop  offset="0.2118" style="stop-color:#A1F2FF"/>
			<stop  offset="0.6546" style="stop-color:#6BD7FF"/>
		</linearGradient>
		<path class="st2" d="M255,225.4c-2.9,0-5.3-2.4-5.3-5.3c0-5.5-4.5-10-10-10c-5.5,0-10,4.5-10,10c0,2.9-2.4,5.3-5.3,5.3
			c-2.9,0-5.3-2.4-5.3-5.3c0-11.3,9.2-20.5,20.5-20.5s20.5,9.2,20.5,20.5C260.3,223,257.9,225.4,255,225.4z"/>
	</g>
	<linearGradient id="SVGID_3_" gradientUnits="userSpaceOnUse" x1="92.9662" y1="172" x2="129.9662" y2="172">
		<stop  offset="0.2118" style="stop-color:#A1F2FF"/>
		<stop  offset="0.6546" style="stop-color:#6BD7FF"/>
	</linearGradient>
	<path class="st3" d="M130,183h-15c-12.2,0-22-9.8-22-22v0h29.3c4.2,0,7.7,3.4,7.7,7.7V183z"/>
	<linearGradient id="SVGID_4_" gradientUnits="userSpaceOnUse" x1="69.0059" y1="224.1404" x2="102.9537" y2="224.1404">
		<stop  offset="0.2118" style="stop-color:#A1F2FF"/>
		<stop  offset="0.6546" style="stop-color:#6BD7FF"/>
	</linearGradient>
	<path class="st4" d="M98.5,239.4H73.4c-2.4,0-4.4-2-4.4-4.4v-21.6c0-2.4,2-4.4,4.4-4.4h25.1c2.4,0,4.4,2,4.4,4.4v21.6
		C103,237.4,101,239.4,98.5,239.4z"/>
	<linearGradient id="SVGID_5_" gradientUnits="userSpaceOnUse" x1="87.4711" y1="231.4154" x2="229.6447" y2="231.4154">
		<stop  offset="0.2118" style="stop-color:#A1F2FF"/>
		<stop  offset="0.6546" style="stop-color:#6BD7FF"/>
	</linearGradient>
	<path class="st5" d="M183,177.7h-48.8c-25.8,0-46.7,20.9-46.7,46.7v0c0,18,10.2,33.6,25,41.4v19.4h29.3v-14H183
		c25.8,0,46.7-20.9,46.7-46.7v0C229.6,198.6,208.8,177.7,183,177.7z"/>
	<g id="Sliders">
		<line class="st6" x1="150.5" y1="254" x2="150.5" y2="217"/>
		<rect id="Slider-1" x="145.5" y="245.2" class="st6" width="10.1" height="6.7"/>
		<line class="st6" x1="164" y1="254" x2="164" y2="217"/>
		<rect id="Slider-2" x="159" y="220.1" class="st6" width="10.1" height="6.7"/>
		<line class="st6" x1="177.5" y1="254" x2="177.5" y2="217"/>
		<rect id="Slider-3" x="172.4" y="245.2" class="st6" width="10.1" height="6.7"/>
	</g>
	<circle class="st6" cx="119" cy="209.4" r="5"/>
	<line class="st7" x1="77" y1="239" x2="77" y2="209"/>
	<path class="st8" d="M189.8,196.3H141c-2.4,0-4.4-2-4.4-4.4v0c0-2.4,2-4.4,4.4-4.4h48.8c2.4,0,4.4,2,4.4,4.4v0
		C194.2,194.3,192.2,196.3,189.8,196.3z"/>
</g>
<g id="TrailBottom" class="st9">
	<line class="st10" x1="166" y1="99.7" x2="166" y2="132.7"/>
	<line class="st10" x1="182" y1="104.7" x2="182" y2="116.7"/>
	<line class="st10" x1="149" y1="104.7" x2="149" y2="116.7"/>
</g>
<g id="TrailTop" class="st9">
	<line class="st10" x1="165.5" y1="79.1" x2="165.5" y2="46.1"/>
	<line class="st10" x1="149.5" y1="74.1" x2="149.5" y2="62.1"/>
	<line class="st10" x1="182.5" y1="74.1" x2="182.5" y2="62.1"/>
</g>
<g id="Sparks">
	<line class="st12" x2="124.9" y2="61.1" x1="133" y1="61.1"/>
	<line class="st12" x2="136.7" y2="32.6" x1="142.4" y1="38.3"/>
	<line class="st12" x2="165.2" y2="20.8" x1="165.2" y1="28.8"/>
	<line class="st12" x2="193.7" y2="32.6" x1="188" y1="38.3"/>
	<line class="st12" x2="205.5" y2="61.1" x1="197.4" y1="61.1"/>
</g>
<g clip-path="url(#ClipPath)">
	<g id="Document" >
		<polygon class="st6" points="177.4,40.7 143.2,40.7 143.2,97.7 188.8,97.7 188.8,52.1 	"/>
		<polyline class="st7" points="177.4,40.7 177.4,52.1 188.8,52.1 	"/>
		<linearGradient id="SVGID_7_" gradientUnits="userSpaceOnUse" x1="152.7038" y1="69.2219" x2="179.2949" y2="69.2219">
			<stop  offset="0.15" style="stop-color:#A1F2FF"/>
			<stop  offset="0.85" style="stop-color:#6BD7FF"/>
		</linearGradient>
		<circle class="st13" cx="166" cy="69.2" r="13.3"/>
		<polyline class="st7" points="166,55.9 166,69.2 179.3,69.2 	"/>
	</g>
	<g id="Coin">
		<g>
			<linearGradient id="SVGID_6_" gradientUnits="userSpaceOnUse" x1="142" y1="64" x2="190" y2="64">
				<stop  offset="0.2118" style="stop-color:#A1F2FF"/>
				<stop  offset="0.6546" style="stop-color:#6BD7FF"/>
			</linearGradient>
			<circle class="st11" cx="166" cy="64" r="24"/>
		</g>
		<line class="st7" x1="142" y1="64" x2="190" y2="64"/>
		<line class="st7" x1="166" y1="40" x2="166" y2="88"/>
		<line class="st7" x1="145.2" y1="76" x2="186.8" y2="52"/>
		<line class="st7" x1="154" y1="43.2" x2="178" y2="84.8"/>
		<line class="st7" x1="154" y1="84.8" x2="178" y2="43.2"/>
		<line class="st7" x1="145.2" y1="52" x2="186.8" y2="76"/>
		<circle class="st6" cx="166" cy="64" r="18"/>
		<line class="st7" x1="166" y1="52" x2="166" y2="76"/>
		<path class="st7" d="M172,56.8c-2.7-1.4-11.5-2.5-11.5,2.4c0,5.8,10.9,3.8,10.9,8.9c0,5.2-7.1,4.8-12,3.1"/>
	</g>
</g>
<script xlink:href="./anime.js"></script>	
<script xlink:href="./animation-3.js"></script>	
</svg>
