<?xml version="1.0" encoding="utf-8"?>
<!-- Generator: Adobe Illustrator 19.0.0, SVG Export Plug-In . SVG Version: 6.00 Build 0)  -->
<svg version="1.1" id="Layer_1" xmlns="http://www.w3.org/2000/svg" xmlns:xlink="http://www.w3.org/1999/xlink" x="0px" y="0px"
	 viewBox="0 0 330 330" style="enable-background:new 0 0 330 330;" xml:space="preserve">
<style type="text/css">
	.st0{fill:#F3F5F7;}
	.st1{fill:url(#SVGID_1_);stroke:#00A1C6;stroke-width:2;stroke-linecap:round;stroke-linejoin:round;stroke-miterlimit:10;}
	.st2{fill:url(#SVGID_2_);stroke:#00A1C6;stroke-width:2;stroke-linecap:round;stroke-linejoin:round;stroke-miterlimit:10;}
	.st3{fill:none;stroke:#A1F2FF;stroke-width:2;stroke-linecap:round;stroke-linejoin:round;stroke-miterlimit:10;}
	.st4{fill:#FFFFFF;stroke:#00A1C6;stroke-width:2;stroke-linecap:round;stroke-linejoin:round;stroke-miterlimit:10;}
	.st5{fill:#FFFFFF;stroke:#00A1C6;stroke-width:2;stroke-linecap:square;stroke-miterlimit:10;}
	.st6{fill:url(#SVGID_3_);stroke:#00A1C6;stroke-width:2;stroke-linecap:square;stroke-miterlimit:10;}
	.st7{fill:url(#SVGID_4_);stroke:#00A1C6;stroke-width:2;stroke-linecap:square;stroke-miterlimit:10;}
	.st8{fill:url(#SVGID_5_);stroke:#00A1C6;stroke-width:2;stroke-linecap:square;stroke-miterlimit:10;}
	.st9{fill:url(#SVGID_6_);stroke:#00A1C6;stroke-width:2;stroke-linecap:square;stroke-miterlimit:10;}
	.st10{fill:#FFFFFF;stroke:#00A1C6;stroke-width:2;stroke-miterlimit:10;}
	.st11{fill:url(#SVGID_7_);stroke:#00A1C6;stroke-width:2;stroke-linecap:square;stroke-miterlimit:10;}
	.st12{fill:url(#SVGID_8_);stroke:#00A1C6;stroke-width:2;stroke-linecap:square;stroke-miterlimit:10;}
	.st13{fill:url(#SVGID_9_);stroke:#00A1C6;stroke-width:2;stroke-linecap:square;stroke-miterlimit:10;}
	.st14{fill:url(#SVGID_10_);stroke:#00A1C6;stroke-width:2;stroke-linecap:square;stroke-miterlimit:10;}
	.st15{fill:url(#SVGID_11_);stroke:#00A1C6;stroke-width:2;stroke-linecap:square;stroke-miterlimit:10;}
	.st16{fill:url(#SVGID_12_);stroke:#00A1C6;stroke-width:2;stroke-linecap:square;stroke-miterlimit:10;}
	.st17{fill:url(#SVGID_13_);stroke:#00A1C6;stroke-width:2;stroke-linecap:square;stroke-miterlimit:10;}
	.st18{fill:url(#SVGID_14_);stroke:#00A1C6;stroke-width:2;stroke-linecap:square;stroke-miterlimit:10;}
</style>
<defs>
    <clipPath id="ClipPath">
		<circle cx="165" cy="160.5" r="124.5"/>
    </clipPath>
</defs>
<circle id="Background" class="st0" cx="165" cy="160.5" r="124.5"/>
<g id="Base">
	<linearGradient id="SVGID_1_" gradientUnits="userSpaceOnUse" x1="75.5" y1="256.0512" x2="254.5" y2="256.0512">
		<stop  offset="0.2118" style="stop-color:#A1F2FF"/>
		<stop  offset="0.6546" style="stop-color:#6BD7FF"/>
	</linearGradient>
	<path class="st1" d="M243.4,228.1H86.6c-6.1,0-11.1,5-11.1,11.1v33.8c0,6.1,5,11.1,11.1,11.1h156.9c6.1,0,11.1-5,11.1-11.1v-33.8
		C254.5,233.1,249.5,228.1,243.4,228.1z"/>
	<linearGradient id="SVGID_2_" gradientUnits="userSpaceOnUse" x1="96.5" y1="243.5" x2="234.5" y2="243.5">
		<stop  offset="9.177186e-02" style="stop-color:#A1F2FF"/>
		<stop  offset="0.5542" style="stop-color:#6BD7FF"/>
	</linearGradient>
	<rect x="96.5" y="228" class="st2" width="138" height="31"/>
</g>
<g id="Sparks">
	<line class="st3" x2="34.5" y2="154" x1="60.9" y1="154"/>
	<line class="st3" x2="73.1" y2="60.9" x1="91.7" y1="79.5"/>
	<line class="st3" x2="166.2" y2="22.3" x1="166.2" y1="48.7"/>
	<line class="st3" x2="259.3" y2="60.9" x1="240.7" y1="79.5"/>
	<line class="st3" x2="297.9" y2="154" x1="271.5" y1="154"/>
</g>
<g id="Boxes" clip-path="url(#ClipPath)">
	<g id="Box-11">
		<g>
			<rect x="165" y="76" class="st4" width="46" height="46"/>
		</g>
		<g>
			<rect x="175.6" y="87.8" class="st5" width="25.1" height="22.8"/>
			<line class="st5" x1="175.6" y1="92.4" x2="200.7" y2="92.4"/>
			<linearGradient id="SVGID_3_" gradientUnits="userSpaceOnUse" x1="180.2102" y1="101.4771" x2="187.0548" y2="101.4771">
				<stop  offset="0.15" style="stop-color:#A1F2FF"/>
				<stop  offset="0.85" style="stop-color:#6BD7FF"/>
			</linearGradient>
			<rect x="180.2" y="98.1" class="st6" width="6.8" height="6.8"/>
			<line class="st5" x1="191.6" y1="98.1" x2="196.2" y2="98.1"/>
			<line class="st5" x1="191.6" y1="102.6" x2="193.9" y2="102.6"/>
			<line class="st5" x1="181.4" y1="87.8" x2="181.4" y2="92.4"/>
		</g>
	</g>
	<g id="Box-10">
		<rect x="119" y="76" class="st4" width="46" height="46"/>
		<g>
			<path class="st5" d="M148.3,111.7h-11.4c-1.3,0-2.3-1-2.3-2.3V88.9c0-1.3,1-2.3,2.3-2.3h11.4c1.3,0,2.3,1,2.3,2.3v20.5
				C150.6,110.7,149.5,111.7,148.3,111.7z"/>
			<circle class="st5" cx="142.6" cy="107.2" r="1.1"/>
			<linearGradient id="SVGID_4_" gradientUnits="userSpaceOnUse" x1="134.5795" y1="97.4845" x2="150.5503" y2="97.4845">
				<stop  offset="0.15" style="stop-color:#A1F2FF"/>
				<stop  offset="0.85" style="stop-color:#6BD7FF"/>
			</linearGradient>
			<rect x="134.6" y="92.4" class="st7" width="16" height="10.3"/>
		</g>
	</g>
	<g id="Box-9">
		<g>
			<rect x="188.2" y="122" class="st4" width="46" height="46"/>
		</g>
		<g>
			<linearGradient id="SVGID_5_" gradientUnits="userSpaceOnUse" x1="209.075" y1="152.0347" x2="213.638" y2="152.0347">
				<stop  offset="0.15" style="stop-color:#A1F2FF"/>
				<stop  offset="0.85" style="stop-color:#6BD7FF"/>
			</linearGradient>
			<circle class="st8" cx="211.4" cy="152" r="2.3"/>
			<path class="st5" d="M217.9,145.5c-1.7-1.6-4-2.6-6.5-2.6s-4.8,1-6.5,2.6"/>
			<path class="st5" d="M222.7,140.7c-2.9-2.9-6.8-4.7-11.3-4.7s-8.4,1.8-11.3,4.7"/>
		</g>
	</g>
	<g id="Box-8">
		<rect x="142.1" y="122" class="st4" width="46" height="46"/>
		<g>
			<linearGradient id="SVGID_6_" gradientUnits="userSpaceOnUse" x1="153.1773" y1="145.1901" x2="175.9927" y2="145.1901">
				<stop  offset="0.15" style="stop-color:#A1F2FF"/>
				<stop  offset="0.85" style="stop-color:#6BD7FF"/>
			</linearGradient>
			<path class="st9" d="M173.7,157.7h-18.3c-1.3,0-2.3-1-2.3-2.3v-20.5c0-1.3,1-2.3,2.3-2.3h18.3c1.3,0,2.3,1,2.3,2.3v20.5
				C176,156.7,175,157.7,173.7,157.7z"/>
			<circle class="st10" cx="164.6" cy="153.2" r="1.1"/>
		</g>
	</g>
	<g id="Box-7">
		<rect x="96.1" y="122" class="st4" width="46" height="46"/>
		<g>
			<rect x="106.4" y="132.6" class="st5" width="25.1" height="25.1"/>
			<line class="st5" x1="113.3" y1="138.3" x2="113.3" y2="142.9"/>
			<line class="st5" x1="124.7" y1="138.3" x2="124.7" y2="142.9"/>
			<linearGradient id="SVGID_7_" gradientUnits="userSpaceOnUse" x1="115.532" y1="149.1828" x2="122.3766" y2="149.1828">
				<stop  offset="0.15" style="stop-color:#A1F2FF"/>
				<stop  offset="0.85" style="stop-color:#6BD7FF"/>
			</linearGradient>
			<path class="st11" d="M122.4,152h-6.8v-2.3c0-1.9,1.5-3.4,3.4-3.4l0,0c1.9,0,3.4,1.5,3.4,3.4V152z"/>
		</g>
	</g>
	<g id="Box-6">
		<rect x="188.2" y="168" class="st4" width="46" height="46"/>
		<g>
			<polyline class="st5" points="214.8,186.6 221.6,186.6 221.6,202.6 205.7,202.6 205.7,195.8 			"/>
			<linearGradient id="SVGID_8_" gradientUnits="userSpaceOnUse" x1="198.808" y1="187.7678" x2="214.7788" y2="187.7678">
				<stop  offset="0.15" style="stop-color:#A1F2FF"/>
				<stop  offset="0.85" style="stop-color:#6BD7FF"/>
			</linearGradient>
			<rect x="198.8" y="179.8" class="st12" width="16" height="16"/>
		</g>
	</g>
	<g id="Box-5">
		<rect x="142.1" y="168" class="st4" width="46" height="46"/>
		<g>
			<line class="st5" x1="155.5" y1="201.5" x2="158.9" y2="201.5"/>
			<polyline class="st5" points="158.9,196.9 153.2,196.9 153.2,180.9 158.9,180.9 			"/>
			<linearGradient id="SVGID_9_" gradientUnits="userSpaceOnUse" x1="162.3035" y1="191.1901" x2="178.2742" y2="191.1901">
				<stop  offset="0.15" style="stop-color:#A1F2FF"/>
				<stop  offset="0.85" style="stop-color:#6BD7FF"/>
			</linearGradient>
			<rect x="162.3" y="178.6" class="st13" width="16" height="25.1"/>
			<line class="st5" x1="168" y1="184.3" x2="172.6" y2="184.3"/>
			<line class="st5" x1="168" y1="188.9" x2="172.6" y2="188.9"/>
			<circle class="st5" cx="170.3" cy="195.8" r="2.3"/>
		</g>
	</g>
	<g id="Box-4">
		<rect x="96.1" y="168" class="st4" width="46" height="46"/>
		<g>
			<linearGradient id="SVGID_10_" gradientUnits="userSpaceOnUse" x1="107.5466" y1="179.7825" x2="112.1097" y2="179.7825">
				<stop  offset="0.15" style="stop-color:#A1F2FF"/>
				<stop  offset="0.85" style="stop-color:#6BD7FF"/>
			</linearGradient>
			<circle class="st14" cx="109.8" cy="179.8" r="2.3"/>
			<linearGradient id="SVGID_11_" gradientUnits="userSpaceOnUse" x1="107.5466" y1="188.9086" x2="112.1097" y2="188.9086">
				<stop  offset="0.15" style="stop-color:#A1F2FF"/>
				<stop  offset="0.85" style="stop-color:#6BD7FF"/>
			</linearGradient>
			<circle class="st15" cx="109.8" cy="188.9" r="2.3"/>
			<linearGradient id="SVGID_12_" gradientUnits="userSpaceOnUse" x1="107.5466" y1="198.0347" x2="112.1097" y2="198.0347">
				<stop  offset="0.15" style="stop-color:#A1F2FF"/>
				<stop  offset="0.85" style="stop-color:#6BD7FF"/>
			</linearGradient>
			<circle class="st16" cx="109.8" cy="198" r="2.3"/>
			<line class="st5" x1="116.7" y1="179.8" x2="130.4" y2="179.8"/>
			<line class="st5" x1="116.7" y1="188.9" x2="130.4" y2="188.9"/>
			<line class="st5" x1="116.7" y1="198" x2="130.4" y2="198"/>
		</g>
	</g>
	<g id="Box-3">
		<rect x="188.2" y="213" class="st4" width="46" height="46"/>
		<g>
			<line class="st5" x1="211.4" y1="248.7" x2="211.4" y2="244.2"/>
			<line class="st5" x1="204.5" y1="248.7" x2="218.2" y2="248.7"/>
			<circle class="st5" cx="211.4" cy="228.2" r="1.1"/>
			<linearGradient id="SVGID_13_" gradientUnits="userSpaceOnUse" x1="198.808" y1="233.9086" x2="223.9049" y2="233.9086">
				<stop  offset="0.15" style="stop-color:#A1F2FF"/>
				<stop  offset="0.85" style="stop-color:#6BD7FF"/>
			</linearGradient>
			<path class="st17" d="M221.6,244.2h-20.5c-1.3,0-2.3-1-2.3-2.3v-16c0-1.3,1-2.3,2.3-2.3h20.5c1.3,0,2.3,1,2.3,2.3v16
				C223.9,243.2,222.9,244.2,221.6,244.2z"/>
			<line class="st5" x1="198.8" y1="239.6" x2="223.9" y2="239.6"/>
		</g>
	</g>
	<g id="Box-2">
		<rect x="142.1" y="213" class="st4" width="46" height="46"/>
		<g>
			<rect x="161.2" y="230.5" class="st5" width="9.1" height="9.1"/>
			<path class="st5" d="M154.3,227.1c0-1.9,1.5-3.4,3.4-3.4s3.4,1.5,3.4,3.4c0,0.9,0,3.4,0,3.4s-2.4,0-3.4,0
				C155.8,230.5,154.3,229,154.3,227.1z"/>
			<path class="st5" d="M177.1,227.1c0-1.9-1.5-3.4-3.4-3.4s-3.4,1.5-3.4,3.4c0,0.9,0,3.4,0,3.4s2.4,0,3.4,0
				C175.7,230.5,177.1,229,177.1,227.1z"/>
			<path class="st5" d="M177.1,243c0,1.9-1.5,3.4-3.4,3.4s-3.4-1.5-3.4-3.4c0-0.9,0-3.4,0-3.4s2.4,0,3.4,0
				C175.7,239.6,177.1,241.1,177.1,243z"/>
			<path class="st5" d="M154.3,243c0,1.9,1.5,3.4,3.4,3.4s3.4-1.5,3.4-3.4c0-0.9,0-3.4,0-3.4s-2.4,0-3.4,0
				C155.8,239.6,154.3,241.1,154.3,243z"/>
		</g>
	</g>
	<g id="Box-1">
		<rect x="96.1" y="213" class="st4" width="46" height="46"/>
		<g>
			<rect x="106.4" y="229.3" class="st5" width="17.1" height="16"/>
			<linearGradient id="SVGID_14_" gradientUnits="userSpaceOnUse" x1="123.5174" y1="237.3309" x2="131.5027" y2="237.3309">
				<stop  offset="0.15" style="stop-color:#A1F2FF"/>
				<stop  offset="0.85" style="stop-color:#6BD7FF"/>
			</linearGradient>
			<polygon class="st18" points="131.5,243 123.5,239.6 123.5,235 131.5,231.6 			"/>
			<polyline class="st5" points="123.5,225.9 123.5,223.6 114.4,223.6 			"/>
			<circle class="st5" cx="111" cy="233.9" r="1.1"/>
		</g>
	</g>
</g>
<script xlink:href="./anime.js"></script>	
<script xlink:href="./animation-7.js"></script>	 
</svg>
