<?xml version="1.0" encoding="utf-8"?>
<!-- Generator: Adobe Illustrator 19.0.0, SVG Export Plug-In . SVG Version: 6.00 Build 0)  -->
<svg version="1.1" id="Layer_1" xmlns="http://www.w3.org/2000/svg" xmlns:xlink="http://www.w3.org/1999/xlink" x="0px" y="0px"
	 viewBox="65 -65 330 330" style="enable-background:new 65 -65 330 330;" xml:space="preserve">
<style type="text/css">
	.st0{fill:url(#SVGID_1_);stroke:#00A1C6;stroke-width:2;stroke-linecap:round;stroke-linejoin:round;stroke-miterlimit:10;}
	.st1{fill:none;stroke:#A1F2FF;stroke-width:2;stroke-linecap:round;stroke-linejoin:round;stroke-miterlimit:10;}
	.st2{fill:#FFFFFF;stroke:#00A1C6;stroke-width:2;stroke-linecap:round;stroke-linejoin:round;stroke-miterlimit:10;}
	.st3{fill:none;stroke:#00A1C6;stroke-width:2;stroke-linecap:round;stroke-linejoin:round;stroke-miterlimit:10;}
	.st4{fill:url(#SVGID_2_);stroke:#00A1C6;stroke-width:2;stroke-linecap:round;stroke-linejoin:round;stroke-miterlimit:10;}
	.st5{fill:url(#SVGID_3_);stroke:#00A1C6;stroke-width:2;stroke-linecap:round;stroke-linejoin:round;stroke-miterlimit:10;}
	.st6{fill:url(#SVGID_4_);stroke:#00A1C6;stroke-width:2;stroke-linecap:round;stroke-linejoin:round;stroke-miterlimit:10;}
	.st7{fill:url(#SVGID_5_);stroke:#00A1C6;stroke-width:2;stroke-linecap:round;stroke-linejoin:round;stroke-miterlimit:10;}
	.st8{fill:url(#SVGID_6_);stroke:#00A1C6;stroke-width:2;stroke-linecap:round;stroke-linejoin:round;stroke-miterlimit:10;}
	.st9{fill:url(#XMLID_4_);stroke:#00A1C6;stroke-width:2;stroke-linecap:round;stroke-linejoin:round;stroke-miterlimit:10;}
	.st10{fill:url(#SVGID_7_);stroke:#00A1C6;stroke-width:2;stroke-linecap:round;stroke-linejoin:round;stroke-miterlimit:10;}
	.st11{fill:url(#SVGID_8_);stroke:#00A1C6;stroke-width:2;stroke-linecap:round;stroke-linejoin:round;stroke-miterlimit:10;}
	.st12{fill:url(#XMLID_5_);stroke:#00A1C6;stroke-width:2;stroke-linecap:round;stroke-linejoin:round;stroke-miterlimit:10;}
	.st13{fill:url(#XMLID_13_);stroke:#00A1C6;stroke-width:2;stroke-linecap:round;stroke-linejoin:round;stroke-miterlimit:10;}
	.st14{fill:url(#XMLID_14_);stroke:#00A1C6;stroke-width:2;stroke-linecap:round;stroke-linejoin:round;stroke-miterlimit:10;}
	.st15{fill:url(#SVGID_9_);stroke:#00A1C6;stroke-width:2;stroke-linecap:round;stroke-linejoin:round;stroke-miterlimit:10;}
	.st16{fill:url(#SVGID_10_);stroke:#00A1C6;stroke-width:2;stroke-linecap:round;stroke-linejoin:round;stroke-miterlimit:10;}
	.st17{fill:url(#ClosedPath_1_);stroke:#00A1C6;stroke-width:2;stroke-linecap:round;stroke-linejoin:round;stroke-miterlimit:10;}
	.st18{fill:url(#OpenPath_1_);fill-opacity:0;}
</style>
<linearGradient id="SVGID_1_" gradientUnits="userSpaceOnUse" x1="168.1" y1="21.7" x2="272.6" y2="21.7" gradientTransform="matrix(1 0 0 -1 0 200)">
	<stop  offset="0.15" style="stop-color:#A1F2FF"/>
	<stop  offset="0.85" style="stop-color:#6BD7FF"/>
</linearGradient>
<polygon class="st0" points="168.1,135.6 168.1,221.1 272.6,221.1 272.6,144.7 203,144.7 194.4,135.6 "/>
<g id="Part-7">
	<path class="st1" d="M230.5,201V-2.8h-70.7"/>
	<g>
		<rect x="131" y="-22.5" class="st2" width="24.3" height="28.8"/>
		<polyline class="st3" points="134,-27 159.8,-27 159.8,3.3 		"/>
		<line class="st3" x1="137" y1="-14.9" x2="149.1" y2="-14.9"/>
		<line class="st3" x1="137" y1="-8.8" x2="149.1" y2="-8.8"/>
		<line class="st3" x1="137" y1="-2.7" x2="143.1" y2="-2.7"/>
	</g>
</g>
<g id="Part-6">
	<path class="st1" d="M230.1,196.6V-2.8"/>
	<g id="XMLID_11_">
		<polygon class="st2" points="240.1,-27.2 211,-27.2 211,21.6 250,21.6 250,-17.4 		"/>
		<polyline class="st3" points="240.1,-27.2 240.1,-17.4 250,-17.4 		"/>
		
			<linearGradient id="SVGID_2_" gradientUnits="userSpaceOnUse" x1="219.05" y1="202.75" x2="241.789" y2="202.75" gradientTransform="matrix(1 0 0 -1 0 200)">
			<stop  offset="0.15" style="stop-color:#A1F2FF"/>
			<stop  offset="0.85" style="stop-color:#6BD7FF"/>
		</linearGradient>
		<circle class="st4" cx="230.5" cy="-2.8" r="11.4"/>
		<polyline class="st3" points="230.5,-14.2 230.5,-2.8 241.9,-2.8 		"/>
	</g>
</g>
<g id="Part-9">
	<path class="st1" d="M230.1,196.6L230,52.2h-88.9l-0.1-16.8l-31.8-0.3"/>
	<g>
		<path class="st2" d="M124.4,52.2H90c-1.5,0-2.6-1.2-2.6-2.6V16.5H102l4,5.3h21.2v27.8C127,51.1,125.8,52.2,124.4,52.2z"/>
		
			<linearGradient id="SVGID_3_" gradientUnits="userSpaceOnUse" x1="99.1434" y1="167.85" x2="105.0988" y2="167.85" gradientTransform="matrix(1 0 0 -1 0 200)">
			<stop  offset="0.15" style="stop-color:#A1F2FF"/>
			<stop  offset="0.85" style="stop-color:#6BD7FF"/>
		</linearGradient>
		<rect x="99.2" y="29.1" class="st5" width="6" height="6"/>
		
			<linearGradient id="SVGID_4_" gradientUnits="userSpaceOnUse" x1="109.0691" y1="167.85" x2="115.0245" y2="167.85" gradientTransform="matrix(1 0 0 -1 0 200)">
			<stop  offset="0.15" style="stop-color:#A1F2FF"/>
			<stop  offset="0.85" style="stop-color:#6BD7FF"/>
		</linearGradient>
		<rect x="109.2" y="29.1" class="st6" width="6" height="6"/>
		
			<linearGradient id="SVGID_5_" gradientUnits="userSpaceOnUse" x1="99.1434" y1="157.95" x2="105.0988" y2="157.95" gradientTransform="matrix(1 0 0 -1 0 200)">
			<stop  offset="0.15" style="stop-color:#A1F2FF"/>
			<stop  offset="0.85" style="stop-color:#6BD7FF"/>
		</linearGradient>
		<rect x="99.2" y="39" class="st7" width="6" height="6"/>
		
			<linearGradient id="SVGID_6_" gradientUnits="userSpaceOnUse" x1="109.0691" y1="157.95" x2="115.0245" y2="157.95" gradientTransform="matrix(1 0 0 -1 0 200)">
			<stop  offset="0.15" style="stop-color:#A1F2FF"/>
			<stop  offset="0.85" style="stop-color:#6BD7FF"/>
		</linearGradient>
		<rect x="109.2" y="39" class="st8" width="6" height="6"/>
	</g>
</g>
<g id="Part-8">
	<path class="st1" d="M230,190V52.2h-88.9v47.8"/>
	<g id="XMLID_3_">
		<path class="st2" d="M164.5,120.9h-46.9c-2,0-3.6-1.6-3.6-3.6V72.1h19.9l5.4,7.2h28.9v37.9C168.1,119.1,166.5,120.9,164.5,120.9z"
			/>
		
			<linearGradient id="XMLID_4_" gradientUnits="userSpaceOnUse" x1="128.3345" y1="99.95" x2="153.6" y2="99.95" gradientTransform="matrix(1 0 0 -1 0 200)">
			<stop  offset="0.15" style="stop-color:#A1F2FF"/>
			<stop  offset="0.85" style="stop-color:#6BD7FF"/>
		</linearGradient>
		<circle id="XMLID_1_" class="st9" cx="141.1" cy="100.1" r="12.6"/>
		<polyline class="st3" points="141.1,87.4 141.1,100.1 153.6,100.1 		"/>
	</g>
</g>
<g id="Part-2">
	<path class="st1" d="M206.1,187.7h-65v-29.2h-39.8"/>
	<g>
		<g id="XMLID_12_">
			<polygon class="st2" points="108.5,140.6 87,140.6 87,176.4 115.6,176.4 115.6,147.8 			"/>
			<polyline class="st3" points="108.5,140.6 108.5,147.8 115.6,147.8 			"/>
			
				<linearGradient id="SVGID_7_" gradientUnits="userSpaceOnUse" x1="92.9167" y1="41.55" x2="109.5919" y2="41.55" gradientTransform="matrix(1 0 0 -1 0 200)">
				<stop  offset="0.15" style="stop-color:#A1F2FF"/>
				<stop  offset="0.85" style="stop-color:#6BD7FF"/>
			</linearGradient>
			<circle class="st10" cx="101.3" cy="158.4" r="8.3"/>
			<polyline class="st3" points="101.3,150.2 101.3,158.4 109.7,158.4 			"/>
		</g>
	</g>
</g>
<g id="Part-1">
	<path id="Path-1" class="st1" d="M206.1,187.7V96h94.6"/>
	<g>
		<g id="Item-1">
			<polygon class="st2" points="310.5,72.1 281.1,72.1 281.1,120.9 320.1,120.9 320.1,81.9 			"/>
			<polyline class="st3" points="310.5,72.1 310.5,81.9 320.1,81.9 			"/>
			
				<linearGradient id="SVGID_8_" gradientUnits="userSpaceOnUse" x1="289.25" y1="103.55" x2="311.9889" y2="103.55" gradientTransform="matrix(1 0 0 -1 0 200)">
				<stop  offset="0.15" style="stop-color:#A1F2FF"/>
				<stop  offset="0.85" style="stop-color:#6BD7FF"/>
			</linearGradient>
			<circle class="st11" cx="300.6" cy="96.4" r="11.4"/>
			<polyline class="st3" points="300.6,85.1 300.6,96.4 312,96.4 			"/>
		</g>
	</g>
</g>
<g id="Part-3">
	<path class="st1" d="M230.5,187.2l80.6,0.4v-29.2h33.1"/>
	<g id="XMLID_6_">
		<path id="XMLID_10_" class="st2" d="M364.5,176.4h-34.4c-1.5,0-2.6-1.2-2.6-2.6v-33.1h14.6l4,5.3h21.2v27.8
			C367,175.2,365.9,176.4,364.5,176.4z"/>
		
			<linearGradient id="XMLID_5_" gradientUnits="userSpaceOnUse" x1="345.1858" y1="38.95" x2="349.156" y2="38.95" gradientTransform="matrix(1 0 0 -1 0 200)">
			<stop  offset="0.15" style="stop-color:#A1F2FF"/>
			<stop  offset="0.85" style="stop-color:#6BD7FF"/>
		</linearGradient>
		<rect id="XMLID_9_" x="345.2" y="154.4" class="st12" width="4" height="13.2"/>
		
			<linearGradient id="XMLID_13_" gradientUnits="userSpaceOnUse" x1="336.5834" y1="34.65" x2="340.5537" y2="34.65" gradientTransform="matrix(1 0 0 -1 0 200)">
			<stop  offset="0.15" style="stop-color:#A1F2FF"/>
			<stop  offset="0.85" style="stop-color:#6BD7FF"/>
		</linearGradient>
		<rect id="XMLID_8_" x="336.6" y="163.1" class="st13" width="4" height="4.6"/>
		
			<linearGradient id="XMLID_14_" gradientUnits="userSpaceOnUse" x1="353.7881" y1="36.3" x2="357.7583" y2="36.3" gradientTransform="matrix(1 0 0 -1 0 200)">
			<stop  offset="0.15" style="stop-color:#A1F2FF"/>
			<stop  offset="0.85" style="stop-color:#6BD7FF"/>
		</linearGradient>
		<rect id="XMLID_7_" x="353.9" y="159.8" class="st14" width="4" height="7.9"/>
	</g>
</g>
<g id="Part-4">
	<path class="st1" d="M250,196.6V49.1h105.9"/>
	<g>
		<rect x="344.2" y="35.5" class="st2" width="24.3" height="28.8"/>
		<polyline class="st3" points="347.2,31 373,31 373,61.2 		"/>
		<line class="st3" x1="350.4" y1="43" x2="362.5" y2="43"/>
		<line class="st3" x1="350.4" y1="49.1" x2="362.5" y2="49.1"/>
		<line class="st3" x1="350.4" y1="55.1" x2="356.4" y2="55.1"/>
	</g>
</g>
<g id="Part-5">
	<path class="st1" d="M250,196.6V49.1h50.4V21.2"/>
	<g>
		<path class="st2" d="M317.6,21.9h-34.4c-1.5,0-2.6-1.2-2.6-2.6v-33.1h14.5l4,5.3h21.2v27.8C320.4,20.8,319.1,21.9,317.6,21.9z"/>
		
			<linearGradient id="SVGID_9_" gradientUnits="userSpaceOnUse" x1="291.8" y1="186.6" x2="309" y2="186.6" gradientTransform="matrix(1 0 0 -1 0 200)">
			<stop  offset="0.15" style="stop-color:#A1F2FF"/>
			<stop  offset="0.85" style="stop-color:#6BD7FF"/>
		</linearGradient>
		<path class="st15" d="M309,16.8h-17.2V14c0-0.9,0.5-1.8,1.3-2.3c1.3-0.7,3.5-1.6,7.3-1.6s6,0.9,7.3,1.6c0.8,0.5,1.3,1.3,1.3,2.3
			L309,16.8L309,16.8z"/>
		
			<linearGradient id="SVGID_10_" gradientUnits="userSpaceOnUse" x1="295.7963" y1="198.2" x2="305.0603" y2="198.2" gradientTransform="matrix(1 0 0 -1 0 200)">
			<stop  offset="0.15" style="stop-color:#A1F2FF"/>
			<stop  offset="0.85" style="stop-color:#6BD7FF"/>
		</linearGradient>
		<path class="st16" d="M295.9,1.4c0-2.6,2.1-4.6,4.6-4.6c2.6,0,4.6,2.1,4.6,4.6c0,2.6-2.1,5.3-4.6,5.3S295.9,4,295.9,1.4z"/>
	</g>
</g>
<linearGradient id="ClosedPath_1_" gradientUnits="userSpaceOnUse" x1="168.1" y1="12.75" x2="272.8" y2="12.75" gradientTransform="matrix(1 0 0 -1 0 200)">
	<stop  offset="0.15" style="stop-color:#A1F2FF"/>
	<stop  offset="0.85" style="stop-color:#6BD7FF"/>
</linearGradient>
<polygon id="ClosedPath" class="st17" points="168.1,153.4 272.8,153.4 272.8,221.1 168.1,221.1 "/>
<linearGradient id="OpenPath_1_" gradientUnits="userSpaceOnUse" x1="168.1" y1="7.75" x2="292.1" y2="7.75" gradientTransform="matrix(1 0 0 -1 0 200)">
	<stop  offset="0.15" style="stop-color:#A1F2FF"/>
	<stop  offset="0.85" style="stop-color:#6BD7FF"/>
</linearGradient>
<polygon id="OpenPath" class="st18" points="187.6,163.4 292.1,163.4 272.6,221.1 168.1,221.1 "/>
<script  xlink:href="./anime.js"></script>
<script  xlink:href="./animation-2.js"></script>
</svg>
